<svg xmlns="http://www.w3.org/2000/svg"  viewBox="0 0 48 48" width="48px" height="48px" baseProfile="basic"><path fill="#007df9" d="M20.558,27.231c2.105,2.105,4.611,3.483,7.206,4.094 c7.142-7.435-3.877-18.458-11.312-11.29C17.065,22.628,18.456,25.129,20.558,27.231z" opacity=".1"/><path fill="#007df9" d="M20.558,27.231c1.878,1.878,4.075,3.188,6.369,3.884l0.171-0.171 c6.777-6.779-3.469-17.037-10.253-10.254l-0.161,0.161C17.379,23.15,18.678,25.351,20.558,27.231z" opacity=".2"/><path fill="#007df9" d="M20.558,27.231c1.663,1.663,3.577,2.866,5.586,3.607l0.424-0.424 c6.076-6.077-3.11-15.275-9.192-9.193l-0.429,0.429C17.688,23.657,18.897,25.57,20.558,27.231z" opacity=".3"/><path fill="#007df9" d="M20.558,27.231c1.451,1.451,3.095,2.555,4.825,3.307l0.656-0.655 c5.375-5.376-2.75-13.514-8.132-8.132l-0.656,0.656C18.002,24.137,19.107,25.78,20.558,27.231z" opacity=".4"/><linearGradient id="WBIETQcahDS_w2LSVTVMMa" x1="22.21" x2="-3.016" y1="23.79" y2="49.016" gradientTransform="translate(1.266 .524)" gradientUnits="userSpaceOnUse"><stop offset="0" stop-color="#009cfc"/><stop offset=".12" stop-color="#18abfc"/><stop offset=".416" stop-color="#4eccfe"/><stop offset=".672" stop-color="#76e4fe"/><stop offset=".875" stop-color="#8ef3ff"/><stop offset="1" stop-color="#97f8ff"/></linearGradient><path fill="url(#WBIETQcahDS_w2LSVTVMMa)" d="M25.508,22.282c-1.953-1.953-5.118-1.953-7.071,0L5.002,35.717	c-1.953,1.953-1.953,5.118,0,7.071c1.953,1.953,5.118,1.953,7.071,0l13.435-13.435C27.461,27.4,27.461,24.234,25.508,22.282z M7.123,40.666c-0.781-0.781-0.781-2.047,0-2.828c0.781-0.781,2.047-0.781,2.828,0c0.781,0.781,0.781,2.047,0,2.828	C9.171,41.447,7.904,41.447,7.123,40.666z"/><path fill="#118bef" d="M25.508,22.281c-1.953-1.953-5.118-1.953-7.071,0l-2.401,2.401 c0.762,1.305,1.778,2.631,3.109,3.962c1.33,1.33,2.657,2.347,3.964,3.107l2.399-2.399C27.461,27.4,27.461,24.234,25.508,22.281z" opacity=".05"/><path fill="#118bef" d="M25.508,22.281c-1.953-1.953-5.118-1.953-7.071,0l-2.086,2.086 c0.743,1.325,1.743,2.663,3.076,3.995c1.332,1.332,2.671,2.332,3.998,3.073l2.083-2.083C27.461,27.4,27.461,24.234,25.508,22.281z" opacity=".1"/><path fill="#118bef" d="M25.508,22.281c-1.953-1.953-5.118-1.953-7.071,0l-1.774,1.774 c0.726,1.346,1.72,2.696,3.047,4.024c1.327,1.327,2.678,2.319,4.027,3.044l1.771-1.771C27.461,27.4,27.461,24.234,25.508,22.281z" opacity=".2"/><path fill="#118bef" d="M25.508,22.281c-1.953-1.953-5.118-1.953-7.071,0l-1.451,1.451 c0.715,1.379,1.688,2.746,3.007,4.065c1.317,1.318,2.685,2.29,4.066,3.005l1.45-1.45C27.461,27.4,27.461,24.234,25.508,22.281z" opacity=".3"/><path fill="#118bef" d="M25.508,22.281c-1.953-1.953-5.118-1.953-7.071,0l-1.148,1.148 c0.715,1.414,1.694,2.792,2.986,4.085c1.291,1.291,2.669,2.271,4.085,2.986l1.148-1.148C27.461,27.4,27.461,24.234,25.508,22.281z" opacity=".4"/><path fill="#118bef" d="M25.508,22.281c-1.953-1.953-5.118-1.953-7.071,0l-0.847,0.847c0.735,1.464,1.721,2.855,2.969,4.103	s2.639,2.234,4.103,2.969l0.847-0.847C27.461,27.4,27.461,24.234,25.508,22.281z"/><linearGradient id="WBIETQcahDS_w2LSVTVMMb" x1="16.41" x2="36.397" y1="29.59" y2="9.603" gradientTransform="translate(1.266 .524)" gradientUnits="userSpaceOnUse"><stop offset="0" stop-color="#daa6ff" stop-opacity=".6"/><stop offset="1" stop-color="#dca6ff" stop-opacity=".4"/></linearGradient><path fill="url(#WBIETQcahDS_w2LSVTVMMb)" d="M43.663,13.566L43.663,13.566	c-0.654-0.654-1.714-0.654-2.368,0l-7.938,7.938c-0.485,0.485-1.233,0.566-1.83,0.228c-2.367-1.342-4.215-3.148-5.492-5.466	c-0.329-0.596-0.245-1.336,0.236-1.818l7.953-7.953c0.654-0.654,0.654-1.714,0-2.368v0c-0.229-0.229-0.517-0.396-0.834-0.461	c-4.531-0.918-10.052,0.987-13.538,4.473c-5.467,5.467-4.76,13.625,0.707,19.092s13.625,6.174,19.092,0.707	c3.486-3.486,5.391-9.007,4.473-13.538C44.059,14.083,43.892,13.795,43.663,13.566z"/><linearGradient id="WBIETQcahDS_w2LSVTVMMc" x1="23.214" x2="29.134" y1="43.244" y2="15.621" gradientTransform="translate(1.266 .524)" gradientUnits="userSpaceOnUse"><stop offset="0" stop-color="#f5ebff" stop-opacity=".2"/><stop offset="1" stop-color="#daa6ff" stop-opacity=".4"/></linearGradient><path fill="url(#WBIETQcahDS_w2LSVTVMMc)" d="M31.024,3.937	c0.785,0,1.547,0.074,2.266,0.219c0.21,0.043,0.41,0.155,0.58,0.324c0.222,0.222,0.344,0.517,0.344,0.831S34.092,5.92,33.87,6.141	l-7.953,7.953c-0.636,0.636-0.765,1.606-0.321,2.413c1.296,2.353,3.209,4.257,5.684,5.66c0.313,0.177,0.666,0.271,1.022,0.271	c0.534,0,1.034-0.206,1.409-0.58l7.938-7.938c0.222-0.222,0.517-0.344,0.831-0.344s0.609,0.122,0.83,0.344	c0.17,0.17,0.282,0.37,0.324,0.58c0.867,4.284-0.916,9.664-4.337,13.085c-2.367,2.367-5.318,3.618-8.534,3.618	c-3.563,0-7.061-1.536-9.85-4.325c-5.442-5.442-5.746-13.346-0.707-18.385C23.015,5.682,27.161,3.937,31.024,3.937 M31.024,3.437	c-3.973,0-8.275,1.805-11.173,4.703c-5.467,5.467-4.76,13.625,0.707,19.092c2.91,2.91,6.582,4.471,10.204,4.471	c3.184,0,6.33-1.206,8.888-3.764c3.486-3.486,5.391-9.007,4.473-13.538c-0.064-0.318-0.232-0.605-0.461-0.834	c-0.327-0.327-0.756-0.49-1.184-0.49c-0.429,0-0.857,0.164-1.184,0.49l-7.938,7.938c-0.288,0.288-0.668,0.434-1.055,0.434	c-0.265,0-0.533-0.068-0.775-0.206c-2.367-1.342-4.215-3.148-5.492-5.466c-0.329-0.596-0.245-1.336,0.236-1.818l7.953-7.953	c0.654-0.654,0.654-1.714,0-2.368c-0.229-0.229-0.517-0.396-0.834-0.461C32.625,3.511,31.831,3.437,31.024,3.437L31.024,3.437z"/></svg>